<svg width="82" height="90" viewBox="0 0 82 90" fill="none" xmlns="http://www.w3.org/2000/svg">
<g filter="url(#filter0_dd_9687_1670)">
<g clip-path="url(#clip0_9687_1670)">
<rect x="20" y="56" width="42" height="42" rx="6" transform="rotate(-90 20 56)" fill="url(#paint0_linear_9687_1670)"/>
<path d="M20 24.3335L20 45.6665C20 51.3735 24.6265 56 30.3335 56L51.6665 56C57.3735 56 62 51.3735 62 45.6665L62 24.3335C62 18.6265 57.3735 14 51.6665 14L30.3335 14C24.6265 14 20 18.6265 20 24.3335Z" fill="url(#paint1_linear_9687_1670)"/>
<path fill-rule="evenodd" clip-rule="evenodd" d="M49.7216 42.3277L45.652 38.9431L45.652 48.5293L36.4038 48.5293L36.4038 38.9439L32.2875 42.3286L32.2875 37.1893L41.0049 30.0157L49.7216 37.1893L49.7216 42.3277Z" fill="white"/>
<path fill-rule="evenodd" clip-rule="evenodd" d="M49.7216 33.7759L41.0049 26.6022L32.2875 33.7759L32.2875 28.6366L41.0049 21.463L49.7216 28.6366L49.7216 33.7759Z" fill="white"/>
</g>
</g>
<defs>
<filter id="filter0_dd_9687_1670" x="0" y="0" width="82" height="90" filterUnits="userSpaceOnUse" color-interpolation-filters="sRGB">
<feFlood flood-opacity="0" result="BackgroundImageFix"/>
<feColorMatrix in="SourceAlpha" type="matrix" values="0 0 0 0 0 0 0 0 0 0 0 0 0 0 0 0 0 0 127 0" result="hardAlpha"/>
<feOffset dy="14"/>
<feGaussianBlur stdDeviation="10"/>
<feComposite in2="hardAlpha" operator="out"/>
<feColorMatrix type="matrix" values="0 0 0 0 0 0 0 0 0 0 0 0 0 0 0 0 0 0 0.2 0"/>
<feBlend mode="normal" in2="BackgroundImageFix" result="effect1_dropShadow_9687_1670"/>
<feColorMatrix in="SourceAlpha" type="matrix" values="0 0 0 0 0 0 0 0 0 0 0 0 0 0 0 0 0 0 127 0" result="hardAlpha"/>
<feOffset dy="-4"/>
<feGaussianBlur stdDeviation="5"/>
<feComposite in2="hardAlpha" operator="out"/>
<feColorMatrix type="matrix" values="0 0 0 0 0 0 0 0 0 0 0 0 0 0 0 0 0 0 0.05 0"/>
<feBlend mode="normal" in2="effect1_dropShadow_9687_1670" result="effect2_dropShadow_9687_1670"/>
<feBlend mode="normal" in="SourceGraphic" in2="effect2_dropShadow_9687_1670" result="shape"/>
</filter>
<linearGradient id="paint0_linear_9687_1670" x1="53.7416" y1="76.9524" x2="40.1745" y2="77.0171" gradientUnits="userSpaceOnUse">
<stop offset="0.245192" stop-color="#BF20E9"/>
<stop offset="1" stop-color="#FF4303"/>
</linearGradient>
<linearGradient id="paint1_linear_9687_1670" x1="40.9524" y1="22.2584" x2="41.0171" y2="35.8255" gradientUnits="userSpaceOnUse">
<stop offset="0.245192" stop-color="#BF20E9"/>
<stop offset="1" stop-color="#FF4303"/>
</linearGradient>
<clipPath id="clip0_9687_1670">
<rect x="20" y="56" width="42" height="42" rx="6" transform="rotate(-90 20 56)" fill="white"/>
</clipPath>
</defs>
</svg>
